<?xml version="1.0" encoding="iso-8859-1"?>
<!-- Generator: Adobe Illustrator 19.0.0, SVG Export Plug-In . SVG Version: 6.00 Build 0)  -->
<svg xmlns="http://www.w3.org/2000/svg" xmlns:xlink="http://www.w3.org/1999/xlink" version="1.1" id="Layer_1" x="0px" y="0px" viewBox="0 0 512 512" style="enable-background:new 0 0 512 512;" xml:space="preserve" width="512" height="512">
<g>
	<g>
		<path style="fill:#DBDBDB;" d="M359.283,512c-22.789,0-41.33-18.541-41.33-41.33V213.596    c-12.556-6.569-23.356-16.038-31.608-27.789c-10.553-15.025-16.13-32.701-16.13-51.117V89.142    c0-49.113,39.956-89.069,89.068-89.069c49.113,0,89.069,39.956,89.069,89.069v45.548c0,18.415-5.578,36.092-16.13,51.117    c-8.253,11.751-19.053,21.22-31.608,27.789V470.67C400.614,493.459,382.073,512,359.283,512z"/>
	</g>
	<path style="fill:#FFDD33;" d="M226.785,0c-8.284,0-15,6.716-15,15v103.18h-19.379V15c0-8.284-6.716-15-15-15s-15,6.716-15,15   v103.18h-19.38V15c0-8.284-6.716-15-15-15s-15,6.716-15,15v103.18H93.647V15c0-8.284-6.716-15-15-15s-15,6.716-15,15v118.18v49.867   c0,22.448,18.263,40.711,40.711,40.711h7.027V470.67c0,22.789,18.541,41.33,41.331,41.33c22.789,0,41.33-18.541,41.33-41.33   V223.758h7.027c22.448,0,40.711-18.263,40.711-40.711V133.18V15C241.785,6.716,235.069,0,226.785,0z"/>
	<path style="fill:#FF9D09;" d="M226.785,0c-8.284,0-15,6.716-15,15v103.18h-19.379V15c0-8.284-6.716-15-15-15s-15,6.716-15,15   v103.18h-9.69V512h0c22.789,0,41.33-18.541,41.33-41.33V223.758h7.027c22.448,0,40.711-18.263,40.711-40.711V133.18V15   C241.785,6.716,235.069,0,226.785,0z"/>
	<path style="fill:#B3B3B3;" d="M360.802,0.092v511.87c22.088-0.803,39.812-19.012,39.812-41.292V213.596   c12.556-6.569,23.355-16.038,31.608-27.789c10.552-15.025,16.13-32.702,16.13-51.117V89.142   C448.353,40.536,409.217,0.906,360.802,0.092z"/>
</g>















</svg>
